<?xml version="1.0" encoding="UTF-8"?>
<svg width="28px" height="25px" viewBox="0 0 28 25" version="1.1" xmlns="http://www.w3.org/2000/svg" xmlns:xlink="http://www.w3.org/1999/xlink">
    <!-- Generator: sketchtool 52.2 (67145) - http://www.bohemiancoding.com/sketch -->
    <title>7D2747E6-8EF6-4561-9E4B-77FE7D1B33C5</title>
    <desc>Created with sketchtool.</desc>
    <defs>
        <polygon id="path-1" points="0 0.076 27.1857 0.076 27.1857 24.9996769 0 24.9996769"></polygon>
    </defs>
    <g id="Page-1" stroke="none" stroke-width="1" fill="none" fill-rule="evenodd">
        <g id="00_인트로_서술" transform="translate(-243.000000, -679.000000)">
            <g id="00_인트로" transform="translate(130.000000, 100.000000)">
                <g id="sns" transform="translate(20.000000, 455.000000)">
                    <g id="카카오" transform="translate(0.000000, 112.000000)">
                        <g id="Group-7" transform="translate(93.000000, 11.000000)">
                            <g id="k">
                                <g id="Group-3" transform="translate(0.000000, 0.924200)">
                                    <mask id="mask-2" fill="white">
                                        <use xlink:href="#path-1"></use>
                                    </mask>
                                    <g id="Clip-2"></g>
                                    <path d="M11.2227,21.3615 C11.2227,21.3615 12.7847,21.5245 13.5927,21.5245 C21.0997,21.5245 27.1857,16.7225 27.1857,10.7995 C27.1857,4.8775 21.0997,0.0755 13.5927,0.0755 C6.0857,0.0755 -0.0003,4.8775 -0.0003,10.7995 C-0.0003,14.4705 2.3377,17.7115 5.9037,19.6445 C5.9037,19.6445 5.4217,22.2095 2.7267,24.6675 C2.7267,24.6675 2.4607,25.1355 3.2597,24.9605 C4.0597,24.7855 9.0297,23.0305 11.2227,21.3615" id="Fill-1" fill="#412D33" mask="url(#mask-2)"></path>
                                </g>
                                <path d="M7.6704,8.8263 L3.6094,8.8263 C3.2284,8.8263 2.9184,9.1353 2.9184,9.5163 C2.9184,9.8983 3.2284,10.2073 3.6094,10.2073 L4.9294,10.2073 L4.9294,15.0723 C4.9294,15.2493 5.0014,15.4223 5.1284,15.5483 C5.2524,15.6743 5.4254,15.7453 5.6034,15.7453 L5.7514,15.7453 C5.9274,15.7453 6.1004,15.6743 6.2244,15.5483 C6.3514,15.4223 6.4234,15.2493 6.4234,15.0723 L6.4234,10.2073 L7.6704,10.2073 C8.0524,10.2073 8.3614,9.8983 8.3614,9.5163 C8.3614,9.1353 8.0524,8.8263 7.6704,8.8263" id="Fill-4" fill="#FFF100"></path>
                                <path d="M17.4282,14.4469 L15.5412,14.4469 L15.5412,9.4789 C15.5412,9.0649 15.2052,8.7289 14.7912,8.7289 C14.3782,8.7289 14.0422,9.0649 14.0422,9.4789 L14.0422,14.8339 C14.0422,14.8749 14.0482,14.9139 14.0542,14.9539 C14.0462,14.9929 14.0422,15.0329 14.0422,15.0729 C14.0422,15.4199 14.3222,15.7009 14.6692,15.7009 L17.4282,15.7009 C17.7752,15.7009 18.0552,15.4199 18.0552,15.0729 C18.0552,14.7279 17.7752,14.4469 17.4282,14.4469" id="Fill-6" fill="#FFF100"></path>
                                <path d="M23.4624,14.6744 L21.3584,11.9104 L23.2594,10.0084 C23.5174,9.7514 23.5174,9.3334 23.2594,9.0764 C23.0024,8.8194 22.5844,8.8194 22.3274,9.0764 L19.9734,11.4304 L19.9734,9.4784 C19.9734,9.0644 19.6374,8.7294 19.2244,8.7294 C18.8104,8.7294 18.4744,9.0644 18.4744,9.4784 L18.4744,14.9984 C18.4744,15.4124 18.8104,15.7474 19.2244,15.7474 C19.6374,15.7474 19.9734,15.4124 19.9734,14.9984 L19.9734,13.2954 L20.4004,12.8674 L22.3914,15.4794 C22.6124,15.7764 23.0334,15.8354 23.3294,15.6124 C23.6254,15.3904 23.6844,14.9704 23.4624,14.6744" id="Fill-8" fill="#FFF100"></path>
                                <path d="M9.5405,13.0621 L10.4715,10.4061 C10.4815,10.4061 10.4905,10.4091 10.5015,10.4091 L11.4315,13.0621 L9.5405,13.0621 Z M13.4815,14.8541 L11.4575,9.3181 C11.4575,9.3181 11.4535,9.3131 11.4505,9.3121 C11.3215,8.9751 10.9475,8.7291 10.5025,8.7291 C10.0085,8.7291 9.6005,9.0311 9.5195,9.4261 C9.5055,9.4551 9.4915,9.4841 9.4795,9.5171 L7.4905,14.8541 C7.3675,15.2041 7.5515,15.5871 7.9005,15.7091 C8.2505,15.8331 8.6335,15.6481 8.7565,15.2981 L9.1015,14.3161 L11.8705,14.3161 L12.2145,15.2981 C12.3375,15.6481 12.7215,15.8331 13.0705,15.7091 C13.4195,15.5871 13.6045,15.2041 13.4815,14.8541 Z" id="Fill-10" fill="#FFF100"></path>
                                <polygon id="Fill-12" fill="#C2B2AD" points="11.3755 5.5631 10.8705 5.5631 10.3425 6.4021 10.3425 5.5631 9.9165 5.5631 9.9165 7.3881 10.3425 7.3881 10.3425 6.5211 10.8705 7.3591 11.3755 7.3591 10.8115 6.4611"></polygon>
                                <polygon id="Fill-14" fill="#C2B2AD" points="14.6226 5.5631 14.1176 5.5631 13.5906 6.4021 13.5906 5.5631 13.1636 5.5631 13.1636 7.3881 13.5906 7.3881 13.5906 6.5211 14.1176 7.3591 14.6226 7.3591 14.0586 6.4611"></polygon>
                                <path d="M11.9995,6.6646 L12.0825,6.0186 C12.2065,5.8776 12.3095,6.0196 12.3095,6.0196 L12.3915,6.6646 L11.9995,6.6646 Z M12.4805,7.3606 L12.9075,7.3606 L12.6805,5.9686 C12.6805,5.9686 12.5915,5.5626 12.1955,5.5626 C11.7995,5.5626 11.7105,5.9676 11.7105,5.9676 L11.4835,7.3596 L11.9105,7.3596 L11.9575,6.9866 L12.4335,6.9866 L12.4805,7.3606 Z" id="Fill-16" fill="#C2B2AD"></path>
                                <path d="M15.2476,6.6646 L15.3306,6.0186 C15.4546,5.8776 15.5576,6.0196 15.5576,6.0196 L15.6396,6.6646 L15.2476,6.6646 Z M15.7286,7.3606 L16.1556,7.3606 L15.9286,5.9686 C15.9286,5.9686 15.8396,5.5626 15.4436,5.5626 C15.0476,5.5626 14.9586,5.9676 14.9586,5.9676 L14.7316,7.3596 L15.1586,7.3596 L15.2066,6.9866 L15.6816,6.9866 L15.7286,7.3606 Z" id="Fill-18" fill="#C2B2AD"></path>
                                <path d="M16.9981,6.9947 C16.7901,6.9947 16.7551,6.7967 16.7551,6.7967 L16.7551,6.1667 C16.7551,6.1667 16.7901,5.9687 16.9981,5.9687 C17.2061,5.9687 17.2821,6.1667 17.2821,6.1667 L17.2821,6.7967 C17.2821,6.7967 17.2061,6.9947 16.9981,6.9947 Z M17.7091,6.0967 C17.7091,6.0967 17.6301,5.5627 16.9981,5.5627 C16.3651,5.5627 16.3281,6.0967 16.3281,6.0967 L16.3281,6.8537 L16.3351,6.8537 L16.3281,6.8667 C16.3281,6.8667 16.3651,7.4007 16.9981,7.4007 C17.6301,7.4007 17.7091,6.8667 17.7091,6.8667 L17.6991,6.8527 L17.7091,6.8537 L17.7091,6.0967 Z" id="Fill-20" fill="#C2B2AD"></path>
                            </g>
                        </g>
                    </g>
                </g>
            </g>
        </g>
    </g>
</svg>